HIERARCHY
ROOT Hips
{
  OFFSET 126.96 91.9987 35.2002
  CHANNELS 6 Xposition Yposition Zposition Zrotation Xrotation Yrotation
  JOINT RightUpLeg
  {
    OFFSET -9.21262 -1.62705 0.0892923
    CHANNELS 3 Zrotation Xrotation Yrotation
    JOINT RightLeg
    {
      OFFSET 0.0960154 -41.8606 0.153467
      CHANNELS 3 Zrotation Xrotation Yrotation
      JOINT RightFoot
      {
        OFFSET 1.33859 -39.7491 3.70458
        CHANNELS 3 Zrotation Xrotation Yrotation
        End Site
        {
          OFFSET 0 -7.69 17.5
        }
      }
    }
  }
  JOINT LeftUpLeg
  {
    OFFSET 9.28909 -1.62806 0.0108209
    CHANNELS 3 Zrotation Xrotation Yrotation
    JOINT LeftLeg
    {
      OFFSET 0.0929201 -41.8886 0.0218006
      CHANNELS 3 Zrotation Xrotation Yrotation
      JOINT LeftFoot
      {
        OFFSET -1.57781 -41.3397 -3.31563
        CHANNELS 3 Zrotation Xrotation Yrotation
        End Site
        {
          OFFSET 0 -7.69 17.5
        }
      }
    }
  }
  JOINT Spine
  {
    OFFSET 0.0128959 14.3037 0.0259321
    CHANNELS 3 Zrotation Xrotation Yrotation
    JOINT Spine1
    {
      OFFSET 0.0143034 9.71252 0.015398
      CHANNELS 3 Zrotation Xrotation Yrotation
      JOINT Spine2
      {
        OFFSET 0.0468817 10.117 -0.0314137
        CHANNELS 3 Zrotation Xrotation Yrotation
        JOINT Spine3
        {
          OFFSET 0.0102655 9.71178 0.00221616
          CHANNELS 3 Zrotation Xrotation Yrotation
          JOINT Neck
          {
            OFFSET -0.0402596 10.3794 0.0231037
            CHANNELS 3 Zrotation Xrotation Yrotation
            JOINT Head
            {
              OFFSET -0.03453 9.49168 0.0708427
              CHANNELS 3 Zrotation Xrotation Yrotation
              End Site
              {
                OFFSET 0 15.95 0
              }
            }
          }
          JOINT RightShoulder
          {
            OFFSET -3.17991 6.93495 0.0309862
            CHANNELS 3 Zrotation Xrotation Yrotation
            JOINT RightArm
            {
              OFFSET -12.8253 0.0342167 0.035901
              CHANNELS 3 Zrotation Xrotation Yrotation
              JOINT RightForeArm
              {
                OFFSET -26.4423 -0.000685918 0.00421057
                CHANNELS 3 Zrotation Xrotation Yrotation
                JOINT RightHand
                {
                  OFFSET -25.9842 -0.0662606 -0.0268032
                  CHANNELS 3 Zrotation Xrotation Yrotation
                  JOINT RightHandThumb1
                  {
                    OFFSET -2.48905 0.190105 3.12053
                    CHANNELS 3 Zrotation Xrotation Yrotation
                    JOINT RightHandThumb2
                    {
                      OFFSET -3.68274 0 0
                      CHANNELS 3 Zrotation Xrotation Yrotation
                      JOINT RightHandThumb3
                      {
                        OFFSET -2.55832 0 0
                        CHANNELS 3 Zrotation Xrotation Yrotation
                        End Site
                        {
                          OFFSET -2.194 0 0
                        }
                      }
                    }
                  }
                  JOINT RightInHandIndex
                  {
                    OFFSET -3.22368 0.508421 1.97842
                    CHANNELS 3 Zrotation Xrotation Yrotation
                    JOINT RightHandIndex1
                    {
                      OFFSET -5.21684 -0.091368 0.999158
                      CHANNELS 3 Zrotation Xrotation Yrotation
                      JOINT RightHandIndex2
                      {
                        OFFSET -3.61937 0 0
                        CHANNELS 3 Zrotation Xrotation Yrotation
                        JOINT RightHandIndex3
                        {
                          OFFSET -2.0521 0 0
                          CHANNELS 3 Zrotation Xrotation Yrotation
                          End Site
                          {
                            OFFSET -1.805 0 0
                          }
                        }
                      }
                    }
                  }
                  JOINT RightInHandMiddle
                  {
                    OFFSET -3.38211 0.517263 0.756737
                    CHANNELS 3 Zrotation Xrotation Yrotation
                    JOINT RightHandMiddle1
                    {
                      OFFSET -5.17411 -0.084 0.313895
                      CHANNELS 3 Zrotation Xrotation Yrotation
                      JOINT RightHandMiddle2
                      {
                        OFFSET -3.94947 0 0
                        CHANNELS 3 Zrotation Xrotation Yrotation
                        JOINT RightHandMiddle3
                        {
                          OFFSET -2.47579 0 0
                          CHANNELS 3 Zrotation Xrotation Yrotation
                          End Site
                          {
                            OFFSET -1.975 0 0
                          }
                        }
                      }
                    }
                  }
                  JOINT RightInHandRing
                  {
                    OFFSET -3.36516 0.537895 -0.128947
                    CHANNELS 3 Zrotation Xrotation Yrotation
                    JOINT RightHandRing1
                    {
                      OFFSET -4.63474 -0.022105 -0.478947
                      CHANNELS 3 Zrotation Xrotation Yrotation
                      JOINT RightHandRing2
                      {
                        OFFSET -3.44238 0 0
                        CHANNELS 3 Zrotation Xrotation Yrotation
                        JOINT RightHandRing3
                        {
                          OFFSET -2.3881 0 0
                          CHANNELS 3 Zrotation Xrotation Yrotation
                          End Site
                          {
                            OFFSET -1.857 0 0
                          }
                        }
                      }
                    }
                  }
                  JOINT RightInHandPinky
                  {
                    OFFSET -3.16105 0.469368 -1.20179
                    CHANNELS 3 Zrotation Xrotation Yrotation
                    JOINT RightHandPinky1
                    {
                      OFFSET -4.14105 -0.022105 -1.09053
                      CHANNELS 3 Zrotation Xrotation Yrotation
                      JOINT RightHandPinky2
                      {
                        OFFSET -2.75653 0 0
                        CHANNELS 3 Zrotation Xrotation Yrotation
                        JOINT RightHandPinky3
                        {
                          OFFSET -1.74189 0 0
                          CHANNELS 3 Zrotation Xrotation Yrotation
                          End Site
                          {
                            OFFSET -1.645 0 0
                          }
                        }
                      }
                    }
                  }
                }
              }
            }
          }
          JOINT LeftShoulder
          {
            OFFSET 3.21113 6.90952 -0.0469957
            CHANNELS 3 Zrotation Xrotation Yrotation
            JOINT LeftArm
            {
              OFFSET 12.7919 -0.0331125 -0.0859637
              CHANNELS 3 Zrotation Xrotation Yrotation
              JOINT LeftForeArm
              {
                OFFSET 26.4755 -0.0026531 -0.0242133
                CHANNELS 3 Zrotation Xrotation Yrotation
                JOINT LeftHand
                {
                  OFFSET 25.9936 -0.03295 -0.105102
                  CHANNELS 3 Zrotation Xrotation Yrotation
                  JOINT LeftHandThumb1
                  {
                    OFFSET 2.48905 0.190105 3.12053
                    CHANNELS 3 Zrotation Xrotation Yrotation
                    JOINT LeftHandThumb2
                    {
                      OFFSET 3.68274 0 0
                      CHANNELS 3 Zrotation Xrotation Yrotation
                      JOINT LeftHandThumb3
                      {
                        OFFSET 2.55832 0 0
                        CHANNELS 3 Zrotation Xrotation Yrotation
                        End Site
                        {
                          OFFSET 2.194 0 0
                        }
                      }
                    }
                  }
                  JOINT LeftInHandIndex
                  {
                    OFFSET 3.22368 0.508421 1.97842
                    CHANNELS 3 Zrotation Xrotation Yrotation
                    JOINT LeftHandIndex1
                    {
                      OFFSET 5.21684 -0.091368 0.999158
                      CHANNELS 3 Zrotation Xrotation Yrotation
                      JOINT LeftHandIndex2
                      {
                        OFFSET 3.61937 0 0
                        CHANNELS 3 Zrotation Xrotation Yrotation
                        JOINT LeftHandIndex3
                        {
                          OFFSET 2.0521 0 0
                          CHANNELS 3 Zrotation Xrotation Yrotation
                          End Site
                          {
                            OFFSET 1.805 0 0
                          }
                        }
                      }
                    }
                  }
                  JOINT LeftInHandMiddle
                  {
                    OFFSET 3.38211 0.517263 0.756737
                    CHANNELS 3 Zrotation Xrotation Yrotation
                    JOINT LeftHandMiddle1
                    {
                      OFFSET 5.17411 -0.084 0.313895
                      CHANNELS 3 Zrotation Xrotation Yrotation
                      JOINT LeftHandMiddle2
                      {
                        OFFSET 3.94947 0 0
                        CHANNELS 3 Zrotation Xrotation Yrotation
                        JOINT LeftHandMiddle3
                        {
                          OFFSET 2.47579 0 0
                          CHANNELS 3 Zrotation Xrotation Yrotation
                          End Site
                          {
                            OFFSET 1.975 0 0
                          }
                        }
                      }
                    }
                  }
                  JOINT LeftInHandRing
                  {
                    OFFSET 3.36516 0.537895 -0.128947
                    CHANNELS 3 Zrotation Xrotation Yrotation
                    JOINT LeftHandRing1
                    {
                      OFFSET 4.63474 -0.022105 -0.478947
                      CHANNELS 3 Zrotation Xrotation Yrotation
                      JOINT LeftHandRing2
                      {
                        OFFSET 3.44238 0 0
                        CHANNELS 3 Zrotation Xrotation Yrotation
                        JOINT LeftHandRing3
                        {
                          OFFSET 2.3881 0 0
                          CHANNELS 3 Zrotation Xrotation Yrotation
                          End Site
                          {
                            OFFSET 1.857 0 0
                          }
                        }
                      }
                    }
                  }
                  JOINT LeftInHandPinky
                  {
                    OFFSET 3.16105 0.469368 -1.20179
                    CHANNELS 3 Zrotation Xrotation Yrotation
                    JOINT LeftHandPinky1
                    {
                      OFFSET 4.14105 -0.022105 -1.09053
                      CHANNELS 3 Zrotation Xrotation Yrotation
                      JOINT LeftHandPinky2
                      {
                        OFFSET 2.75653 0 0
                        CHANNELS 3 Zrotation Xrotation Yrotation
                        JOINT LeftHandPinky3
                        {
                          OFFSET 1.74189 0 0
                          CHANNELS 3 Zrotation Xrotation Yrotation
                          End Site
                          {
                            OFFSET 1.645 0 0
                          }
                        }
                      }
                    }
                  }
                }
              }
            }
          }
        }
      }
    }
  }
}
MOTION
Frames: 3
Frame Time: 0.00833333
4.500257030051156448e+02 -1.337732753365886151e-02 -3.747757871250687739e-02 -4.800392697352122429e-02 -8.701976919954299006e-02 -1.585948712090125279e-01 4.839083576302622425e-01 3.944927229643745842e-02 5.023853826237273390e-01 -1.492557086849253256e-01 1.756367567711276598e-02 1.119160027516581529e-01 4.014568310147462876e-02 4.710483137990560676e-02 6.197159005048309688e-03 5.963632016394461444e-02 1.043411263889615082e-01 -2.973955854872593896e-02 -8.142159024039670456e-02 1.135726724796392723e-01 1.411928930725077636e-01 -8.026680239677592976e-02 -1.330808871655244641e-01 8.341679191413203798e-02 -1.156297324555593253e-01 -8.247363542555233296e-02 2.214069206330827599e-01 -2.730655019939506878e-02 -6.743121325311587054e-03 5.692866733223702486e-02 -4.569675408793661547e-02 9.996344568009858222e-04 8.984122243616360359e-02 6.344835568768658965e-03 -4.019870916844323593e-03 -1.657316982228290020e-02 9.237466817855498336e-02 2.845705042620399333e-02 -3.806778764921276426e-01 5.930492021162745570e-02 -1.943522928208766820e-01 3.146664011033498132e-02 -4.170770858520055913e-01 -8.191894685634992790e-02 -4.335068028372625060e-01 3.230524525902989108e-01 1.232499381171658359e-01 1.702525911583219892e-02 -1.982273362423069951e+00 -4.298594163601255902e-01 -5.035613348839166115e+00 -1.669386732733090309e-02 9.416720068506433394e-01 -1.062869184688225166e-01 0.000000000000000000e+00 0.000000000000000000e+00 0.000000000000000000e+00 4.960598521997844334e-15 -1.629033932650498290e-16 0.000000000000000000e+00 -1.441790329167593918e-16 7.630436864860875277e-16 0.000000000000000000e+00 3.912516711960080840e-16 9.447266053407170022e-16 8.419574619508340290e-16 0.000000000000000000e+00 0.000000000000000000e+00 0.000000000000000000e+00 0.000000000000000000e+00 -1.123705510674738263e-15 -7.881195216184767934e-16 0.000000000000000000e+00 2.425788054673131712e-16 -2.182060529994814526e-15 3.912516711960080840e-16 9.447266053407170022e-16 8.419574619508340290e-16 0.000000000000000000e+00 -9.836784105415340119e-16 2.008777656110883297e-15 0.000000000000000000e+00 -5.988147605440044880e-16 -9.608827799395997195e-16 0.000000000000000000e+00 -3.376054581401183286e-16 -1.753809657017622460e-15 3.912516711960080840e-16 9.447266053407170022e-16 8.419574619508340290e-16 0.000000000000000000e+00 0.000000000000000000e+00 0.000000000000000000e+00 0.000000000000000000e+00 -6.979848770362934229e-16 -1.507384244895447804e-15 0.000000000000000000e+00 -1.020140365864341858e-15 -1.613659579838602561e-15 3.912516711960080840e-16 9.447266053407170022e-16 8.419574619508340290e-16 0.000000000000000000e+00 0.000000000000000000e+00 0.000000000000000000e+00 0.000000000000000000e+00 1.065690430772846254e-17 -7.789702831090317423e-16 0.000000000000000000e+00 3.082014922991417512e-16 -1.326838184699460573e-15 -3.525377947345908342e-02 -7.823544178732462495e-02 4.157009485763880907e-02 -8.907827230977904964e-02 -3.201230719511167361e-02 -6.803187815266752148e-02 3.519240903869820247e+00 -9.619452029381659885e-01 3.153335558857379706e+00 5.532962575220442547e-01 -4.387552629199599763e-01 -7.596960016824439998e-01 0.000000000000000000e+00 0.000000000000000000e+00 0.000000000000000000e+00 7.760827164243111774e-17 2.257218998112420930e-15 0.000000000000000000e+00 3.694848316504274112e-15 1.147524724772704615e-15 0.000000000000000000e+00 -6.916508509156279461e-16 -3.460506342131334587e-18 6.323506700836422690e-17 0.000000000000000000e+00 0.000000000000000000e+00 0.000000000000000000e+00 0.000000000000000000e+00 -1.411844739241828955e-15 -6.932868854142874023e-16 0.000000000000000000e+00 1.043343641297154204e-15 1.419971726548659743e-15 -6.916508509156279461e-16 -3.460506342131334587e-18 6.323506700836422690e-17 0.000000000000000000e+00 2.009990317825624121e-15 2.582442644983396182e-15 0.000000000000000000e+00 -1.682625153448629668e-15 -1.434816277926644763e-15 0.000000000000000000e+00 -4.540956238448021699e-16 9.496815131108775215e-16 -6.916508509156279461e-16 -3.460506342131334587e-18 6.323506700836422690e-17 0.000000000000000000e+00 0.000000000000000000e+00 0.000000000000000000e+00 0.000000000000000000e+00 5.502615838149040264e-16 -1.689553329962757486e-15 0.000000000000000000e+00 1.348535313194715163e-15 -2.576083767951356583e-15 -6.916508509156279461e-16 -3.460506342131334587e-18 6.323506700836422690e-17 0.000000000000000000e+00 0.000000000000000000e+00 0.000000000000000000e+00 0.000000000000000000e+00 -2.395542081416848905e-15 1.504772005623249250e-15 0.000000000000000000e+00 2.395930726075680211e-15 3.914807892629412819e-15
4.500279192512692816e+02 -1.291562471619597807e-02 -3.025373762511317580e-02 -2.512118970024470460e-02 -6.787290295795912753e-02 -1.040521021315592154e-01 3.877557669911131377e-01 1.022917762368264621e-02 3.905931160889143938e-01 -1.270931363364739830e-01 3.173104836238477278e-02 8.625700594217113049e-02 3.463009453452890740e-02 3.465061918216320175e-02 6.736240245439967939e-03 5.205301162864729020e-02 6.646938005585686926e-02 -4.183019532602851032e-02 -6.850522408743979497e-02 9.421001792920238871e-02 1.220330240383465797e-01 -7.074990906121920997e-02 -1.092161596033089516e-01 6.675597195146223961e-02 -9.544868697296614302e-02 -6.158386284336391653e-02 2.082723546202431275e-01 -2.213767742782560624e-02 -2.455433304069717243e-03 5.362341827951670054e-02 -3.723987826423744152e-02 5.906960898620048327e-03 8.527359746999416124e-02 6.050825789340618169e-03 -3.143571853989259902e-03 -1.696128429382650141e-02 9.491817530641068201e-02 3.018260588123519023e-02 -4.010558861252486174e-01 5.573391689859856502e-02 -1.845787743601668973e-01 3.719664988390968680e-02 -3.666951237126699903e-01 -7.488455436219083883e-02 -3.717409948832628985e-01 2.699192313977096247e-01 1.942535517965994843e-02 1.144195159799859113e-01 -2.021592086365293639e+00 -2.481646207980554575e-01 -5.203536186427379917e+00 -2.003576239329757369e-02 7.509103892329568319e-01 7.498403389742522296e-02 0.000000000000000000e+00 0.000000000000000000e+00 0.000000000000000000e+00 4.494007844882007928e-15 -1.326031581349006959e-16 0.000000000000000000e+00 2.431553203565604901e-16 1.196329035042796919e-15 0.000000000000000000e+00 3.003142911171606151e-16 6.456495576200516435e-16 6.832777732780318550e-16 0.000000000000000000e+00 0.000000000000000000e+00 0.000000000000000000e+00 0.000000000000000000e+00 -1.043338957714957003e-15 -9.470199115258453018e-16 0.000000000000000000e+00 3.780697006743891049e-16 -1.533434599252256804e-15 3.003142911171606151e-16 6.456495576200516435e-16 6.832777732780318550e-16 0.000000000000000000e+00 -8.235136367520728705e-16 1.845779057816346200e-15 0.000000000000000000e+00 -6.840213195108938919e-16 -1.104637861149394922e-15 0.000000000000000000e+00 -2.971386496977740052e-16 -1.877712219834517385e-15 3.003142911171606151e-16 6.456495576200516435e-16 6.832777732780318550e-16 0.000000000000000000e+00 0.000000000000000000e+00 0.000000000000000000e+00 0.000000000000000000e+00 -9.638307049227440866e-16 -1.729352022876060858e-15 0.000000000000000000e+00 -8.942182916995914288e-16 -1.229891805015760084e-15 3.003142911171606151e-16 6.456495576200516435e-16 6.832777732780318550e-16 0.000000000000000000e+00 0.000000000000000000e+00 0.000000000000000000e+00 0.000000000000000000e+00 -1.538929418854638798e-16 -3.549875917076347310e-17 0.000000000000000000e+00 2.001112283587381179e-16 -9.325070447668545065e-16 -3.925266778563915593e-02 -7.063222690153352079e-02 5.560267042391166259e-02 -1.294543074503863300e-01 -1.684320446247855596e-02 -3.962569207924735576e-03 4.121691595966166410e+00 -7.716747031556197012e-01 3.805195372604404547e+00 6.203932411113383116e-01 -2.941316200589025875e-01 -7.675219464779007295e-01 0.000000000000000000e+00 0.000000000000000000e+00 0.000000000000000000e+00 6.296797605488580135e-16 1.516029935841962600e-15 0.000000000000000000e+00 3.189859915106190287e-15 6.922701092966208372e-16 0.000000000000000000e+00 -7.332068939440560391e-16 -1.448555114903103728e-16 8.180100900160005458e-18 0.000000000000000000e+00 0.000000000000000000e+00 0.000000000000000000e+00 0.000000000000000000e+00 -1.410793140916052914e-15 -2.548557866747837945e-17 0.000000000000000000e+00 8.407505410844864367e-16 1.895398117778068674e-15 -7.332068939440560391e-16 -1.448555114903103728e-16 8.180100900160005458e-18 0.000000000000000000e+00 1.577806876171794958e-15 2.344261925897022021e-15 0.000000000000000000e+00 -1.575805393297551887e-15 -7.784115943710581312e-16 0.000000000000000000e+00 -4.151463945878490290e-16 1.669025352425409725e-15 -7.332068939440560391e-16 -1.448555114903103728e-16 8.180100900160005458e-18 0.000000000000000000e+00 0.000000000000000000e+00 0.000000000000000000e+00 0.000000000000000000e+00 2.523896159026838855e-16 -8.570106317155460475e-16 0.000000000000000000e+00 1.150235489805753212e-15 -1.019308725083841541e-15 -7.332068939440560391e-16 -1.448555114903103728e-16 8.180100900160005458e-18 0.000000000000000000e+00 0.000000000000000000e+00 0.000000000000000000e+00 0.000000000000000000e+00 -2.322059730582646510e-15 1.497954795102836439e-15 0.000000000000000000e+00 1.516458969481522532e-15 4.291725268262479512e-15
4.500280748287491974e+02 -1.216217219983398851e-02 -2.375695347926329651e-02 -8.506082555910341944e-03 -5.101987464858752375e-02 -6.207608901116561106e-02 3.029913737671511287e-01 -1.069500022091943690e-02 2.934401893521633164e-01 -1.059629084723628101e-01 4.070275453506811553e-02 6.475672953830019507e-02 2.872230285285694643e-02 2.627245710195003081e-02 8.365650585221309429e-03 4.349626641062319388e-02 3.790758887153627965e-02 -4.927819872157224862e-02 -5.603968536308024523e-02 7.696396890540023461e-02 1.033932075355286778e-01 -6.131505917331072503e-02 -8.849786177669374809e-02 5.182920741472391013e-02 -7.604020475183567718e-02 -4.387391125060687708e-02 1.881128956636806404e-01 -1.728432236415107862e-02 5.780712725747534468e-04 4.845794876792685474e-02 -2.924410601376183777e-02 8.793978621244124758e-03 7.758162453577931161e-02 5.405737718301830211e-03 -2.271568440306050585e-03 -1.632534535689328728e-02 9.333812855258280528e-02 3.060636533292933337e-02 -4.026850886774010485e-01 4.743213882700852285e-02 -1.695038454349901413e-01 4.731267673281000508e-02 -3.159980258165200895e-01 -6.322690485344086009e-02 -3.129894729502886719e-01 2.214791702525230610e-01 -5.370939874162893729e-02 1.841614952260098581e-01 -1.980131634237188631e+00 -1.230305331866491103e-01 -5.144173342466729082e+00 -2.423325610263282748e-02 5.812639333422919830e-01 2.075090599085830934e-01 0.000000000000000000e+00 0.000000000000000000e+00 0.000000000000000000e+00 3.885503758364131096e-15 -1.334770102377688127e-16 0.000000000000000000e+00 5.650714556527812789e-16 1.506574908947477176e-15 0.000000000000000000e+00 1.955631801078067775e-16 3.488736080073767253e-16 5.199793437119395720e-16 0.000000000000000000e+00 0.000000000000000000e+00 0.000000000000000000e+00 0.000000000000000000e+00 -9.450496808212155439e-16 -9.997784726351797235e-16 0.000000000000000000e+00 4.640238542708287390e-16 -9.334433739332226305e-16 1.955631801078067775e-16 3.488736080073767253e-16 5.199793437119395720e-16 0.000000000000000000e+00 -6.473288904603154369e-16 1.641388593907420439e-15 0.000000000000000000e+00 -7.535015853253691586e-16 -1.247264552403896671e-15 0.000000000000000000e+00 -2.529729100169977983e-16 -1.900344200441039179e-15 1.955631801078067775e-16 3.488736080073767253e-16 5.199793437119395720e-16 0.000000000000000000e+00 0.000000000000000000e+00 0.000000000000000000e+00 0.000000000000000000e+00 -1.166758159235399710e-15 -1.874459812685632507e-15 0.000000000000000000e+00 -7.612419718195298258e-16 -8.613462989403470678e-16 1.955631801078067775e-16 3.488736080073767253e-16 5.199793437119395720e-16 0.000000000000000000e+00 0.000000000000000000e+00 0.000000000000000000e+00 0.000000000000000000e+00 -2.943030057193629705e-16 6.050497641581582926e-16 0.000000000000000000e+00 9.036960031369816894e-17 -5.549242470794843597e-16 -4.014042476530058773e-02 -6.165269710010480575e-02 6.174443760398318909e-02 -1.541118075957681743e-01 -2.224874055559606777e-03 4.278451205920735106e-02 4.376899116352590546e+00 -6.083419999367053466e-01 4.107794924087715849e+00 6.552783065875016355e-01 -1.736865677767875371e-01 -7.410772718857000507e-01 0.000000000000000000e+00 0.000000000000000000e+00 0.000000000000000000e+00 1.000803534389785291e-15 8.422867270298620964e-16 0.000000000000000000e+00 2.596002602453345882e-15 2.949016469956607807e-16 0.000000000000000000e+00 -7.459801725014706471e-16 -2.517004407315120460e-16 -4.236012611614514630e-17 0.000000000000000000e+00 0.000000000000000000e+00 0.000000000000000000e+00 0.000000000000000000e+00 -1.339574427218451583e-15 5.206232834086908172e-16 0.000000000000000000e+00 6.396142100319433302e-16 2.197008069625540873e-15 -7.459801725014706471e-16 -2.517004407315120460e-16 -4.236012611614514630e-17 0.000000000000000000e+00 1.150100493065445047e-15 2.032326374418897343e-15 0.000000000000000000e+00 -1.417530802741548849e-15 -1.615216694701194476e-16 0.000000000000000000e+00 -3.428822421773165481e-16 2.209849005993075287e-15 -7.459801725014706471e-16 -2.517004407315120460e-16 -4.236012611614514630e-17 0.000000000000000000e+00 0.000000000000000000e+00 0.000000000000000000e+00 0.000000000000000000e+00 -1.261806595877935254e-17 -1.079789543813851115e-16 0.000000000000000000e+00 9.303384980212916330e-16 3.481359227971781690e-16 -7.459801725014706471e-16 -2.517004407315120460e-16 -4.236012611614514630e-17 0.000000000000000000e+00 0.000000000000000000e+00 0.000000000000000000e+00 0.000000000000000000e+00 -2.163902162294398318e-15 1.436591328517227161e-15 0.000000000000000000e+00 7.211587271383372519e-16 4.416243547488081005e-15
